<?xml version="1.0" encoding="UTF-8"?> <svg xmlns="http://www.w3.org/2000/svg" width="165" height="50" viewBox="0 0 165 50"><g transform="translate(-237 -1202)"><g transform="translate(240.598 1216)"><path d="M106.615,0,103.3,9.935,93,9.567l8.464,6.256L98.152,25.39l8.463-6.256,8.1,6.256L111.4,15.455l8.463-5.888h-10.3Z" transform="translate(-61.466 0)" fill="#293133"></path><path d="M106.615,0,103.3,9.935,93,9.567l8.464,6.256L98.152,25.39l8.463-6.256,8.1,6.256L111.4,15.455l8.463-5.888h-10.3Z" transform="translate(-93.343 0)" fill="#293133"></path><path d="M106.615,0,103.3,9.935,93,9.567l8.464,6.256L98.152,25.39l8.463-6.256,8.1,6.256L111.4,15.455l8.463-5.888h-10.3Z" transform="translate(-29.59 0)" fill="#293133"></path><path d="M106.615,0,103.3,9.935,93,9.567l8.464,6.256L98.152,25.39l8.463-6.256,8.1,6.256L111.4,15.455l8.463-5.888h-10.3Z" transform="translate(2.287 0)" fill="#293133"></path><path d="M106.615,0,103.3,9.935,93,9.567l8.464,6.256L98.152,25.39l8.463-6.256,8.1,6.256L111.4,15.455l8.463-5.888h-10.3Z" transform="translate(34.162 0)" fill="#293133"></path></g><rect width="165" height="50" transform="translate(237 1202)" fill="none"></rect></g></svg> 