<?xml version="1.0" encoding="UTF-8"?> <svg xmlns="http://www.w3.org/2000/svg" xmlns:xlink="http://www.w3.org/1999/xlink" version="1.1" id="Ebene_1" x="0px" y="0px" viewBox="0 0 75 50" style="enable-background:new 0 0 75 50;" xml:space="preserve"> <style type="text/css"> .st0{fill:#293133;} </style> <g> <path class="st0" d="M71.6,23.4c-2.2-2.2-5.1-3.4-8.1-3.4c-0.6,0-1.2,0.1-1.7,0.1c0.8,2.1,1.2,4.4,1.2,6.9c0,5.5-2.2,10.5-5.8,14.1 c4.5,2.9,10.5,2.5,14.5-1.5C76.1,35.1,76.1,27.9,71.6,23.4z"></path> <path class="st0" d="M28.5,4.6C26,3.5,23.2,3,20.5,3C9.2,3,0,12.2,0,23.5c0,8.2,4.9,15.7,12.5,18.9C23,46.8,35,41.9,39.4,31.5 C43.8,21,38.9,9,28.5,4.6z M33.6,25H19V7.5h3V22h11.6V25z"></path> <path class="st0" d="M55,15c-3.2-3.2-7.5-5-12-5c-1,0-1.9,0.1-2.9,0.3c2.5,3.7,4,8.2,4,13.1c0,7.6-3.6,14.3-9.2,18.6 c6.4,3.5,14.6,2.5,20.1-3C61.7,32.4,61.7,21.6,55,15z"></path> </g> </svg> 